<?xml version="1.0" standalone="no"?>
<!DOCTYPE svg PUBLIC "-//W3C//DTD SVG 20010904//EN"
 "http://www.w3.org/TR/2001/REC-SVG-20010904/DTD/svg10.dtd">
<svg version="1.0" xmlns="http://www.w3.org/2000/svg"
 width="232.000000pt" height="232.000000pt" viewBox="0 0 232.000000 232.000000"
 preserveAspectRatio="xMidYMid meet">
<metadata>
Created by potrace 1.14, written by Peter Selinger 2001-2017
</metadata>
<g transform="translate(0.000000,232.000000) scale(0.100000,-0.100000)"
fill="#000000" stroke="none">
<path d="M595 2119 c-4 -5 -10 -7 -16 -4 -5 3 -25 3 -44 -1 -36 -6 -36 -7 -30
-48 29 -199 37 -748 14 -912 -29 -202 -59 -317 -109 -418 -35 -70 -54 -95 -92
-120 -99 -65 -172 16 -163 182 2 43 10 98 18 124 13 43 50 105 69 119 5 3 -1
16 -12 29 -11 13 -20 20 -20 15 0 -4 -6 -3 -12 2 -7 5 -19 8 -25 7 -7 -1 -18
-2 -23 -3 -6 0 -23 -13 -38 -28 -87 -86 -125 -256 -84 -378 73 -216 305 -279
472 -129 98 88 151 220 184 454 25 180 26 688 1 885 -2 17 -6 59 -10 95 -12
118 -18 134 -48 137 -14 1 -29 -3 -32 -8z"/>
<path d="M1347 2043 c-37 -8 -80 -19 -95 -25 -15 -6 -33 -12 -40 -14 -47 -9
-332 -174 -332 -191 0 -5 9 -14 20 -21 19 -12 19 -14 6 -34 -11 -16 -13 -25
-4 -35 14 -17 57 -17 77 1 28 26 174 94 236 111 143 38 338 29 443 -21 87 -42
103 -99 51 -178 -51 -76 -171 -155 -274 -180 -60 -15 -71 -17 -152 -23 -82 -5
-86 -4 -85 27 1 62 14 265 18 273 7 22 -13 40 -37 34 -13 -3 -27 -6 -32 -6 -4
0 -20 -7 -36 -15 -29 -15 -33 -29 -47 -156 -1 -14 -5 -41 -7 -60 -15 -103 -22
-260 -22 -465 0 -392 24 -497 110 -474 40 11 67 57 60 101 -3 19 -7 155 -9
301 -4 299 -8 284 70 247 68 -34 136 -106 177 -193 44 -90 73 -174 132 -382
63 -218 79 -261 125 -321 87 -115 193 -171 310 -161 121 9 196 70 269 213 26
52 42 124 27 124 -3 0 -18 -12 -33 -26 -118 -110 -245 -142 -333 -84 -92 61
-153 160 -259 421 -119 291 -168 361 -300 427 l-59 29 72 12 c151 24 385 169
431 268 34 71 14 176 -53 278 -48 73 -82 108 -147 150 -90 58 -165 71 -278 48z"/>
</g>
</svg>
